<svg viewBox="0 0 100 100" xmlns="http://www.w3.org/2000/svg">
  <rect width="100" height="100" rx="22" fill="#0f172a"/>
  <polygon points="50,14 82,31 50,48 18,31" fill="#2dd4bf"/>
  <polygon points="82,31 82,69 50,86 50,48" fill="#0d9488"/>
  <polygon points="18,31 18,69 50,86 50,48" fill="#0a6e63"/>
  <line x1="50" y1="55" x2="82" y2="38" stroke="#99f6e4" stroke-width="1.8" opacity="0.7"/>
  <line x1="50" y1="62" x2="82" y2="45" stroke="#99f6e4" stroke-width="1.8" opacity="0.7"/>
  <line x1="50" y1="69" x2="82" y2="52" stroke="#99f6e4" stroke-width="1.8" opacity="0.7"/>
  <line x1="50" y1="76" x2="82" y2="59" stroke="#99f6e4" stroke-width="1.8" opacity="0.7"/>
  <line x1="18" y1="38" x2="50" y2="55" stroke="#5eead4" stroke-width="1.8" opacity="0.45"/>
  <line x1="18" y1="45" x2="50" y2="62" stroke="#5eead4" stroke-width="1.8" opacity="0.45"/>
  <line x1="18" y1="52" x2="50" y2="69" stroke="#5eead4" stroke-width="1.8" opacity="0.45"/>
  <line x1="18" y1="59" x2="50" y2="76" stroke="#5eead4" stroke-width="1.8" opacity="0.45"/>
  <path d="M76,10 L77.8,16.2 L84,18 L77.8,19.8 L76,26 L74.2,19.8 L68,18 L74.2,16.2 Z" fill="#fbbf24"/>
  <circle cx="76" cy="18" r="2" fill="#fef3c7" opacity="0.6"/>
</svg>
