<svg viewBox="0 0 512 512" xmlns="http://www.w3.org/2000/svg" width="512" height="512">
  <defs>
    <linearGradient id="bg" x1="0%" y1="0%" x2="100%" y2="100%">
      <stop offset="0%" stop-color="#0d1117"/>
      <stop offset="100%" stop-color="#0f1f2e"/>
    </linearGradient>
    <linearGradient id="sliceGrad" x1="0%" y1="0%" x2="100%" y2="0%">
      <stop offset="0%" stop-color="#00c896"/>
      <stop offset="100%" stop-color="#00e5b0"/>
    </linearGradient>
    <linearGradient id="sparkGrad" x1="0%" y1="0%" x2="100%" y2="100%">
      <stop offset="0%" stop-color="#f5c842"/>
      <stop offset="100%" stop-color="#ff8c42"/>
    </linearGradient>
    <filter id="glow" x="-20%" y="-20%" width="140%" height="140%">
      <feGaussianBlur stdDeviation="6" result="blur"/>
      <feMerge><feMergeNode in="blur"/><feMergeNode in="SourceGraphic"/></feMerge>
    </filter>
    <filter id="softglow" x="-30%" y="-30%" width="160%" height="160%">
      <feGaussianBlur stdDeviation="10" result="blur"/>
      <feMerge><feMergeNode in="blur"/><feMergeNode in="SourceGraphic"/></feMerge>
    </filter>
  </defs>
  <rect x="0" y="0" width="512" height="512" rx="110" ry="110" fill="url(#bg)"/>
  <g opacity="0.07">
    <line x1="0" y1="128" x2="512" y2="128" stroke="#00e5b0" stroke-width="1"/>
    <line x1="0" y1="256" x2="512" y2="256" stroke="#00e5b0" stroke-width="1"/>
    <line x1="0" y1="384" x2="512" y2="384" stroke="#00e5b0" stroke-width="1"/>
    <line x1="128" y1="0" x2="128" y2="512" stroke="#00e5b0" stroke-width="1"/>
    <line x1="256" y1="0" x2="256" y2="512" stroke="#00e5b0" stroke-width="1"/>
    <line x1="384" y1="0" x2="384" y2="512" stroke="#00e5b0" stroke-width="1"/>
  </g>
  <g filter="url(#glow)">
    <rect x="108" y="370" width="296" height="18" rx="9" fill="url(#sliceGrad)" opacity="0.35"/>
    <rect x="116" y="347" width="280" height="18" rx="9" fill="url(#sliceGrad)" opacity="0.45"/>
    <rect x="126" y="324" width="260" height="18" rx="9" fill="url(#sliceGrad)" opacity="0.55"/>
    <rect x="138" y="301" width="236" height="18" rx="9" fill="url(#sliceGrad)" opacity="0.65"/>
    <rect x="152" y="278" width="208" height="18" rx="9" fill="url(#sliceGrad)" opacity="0.75"/>
    <rect x="170" y="255" width="172" height="18" rx="9" fill="url(#sliceGrad)" opacity="0.85"/>
    <rect x="192" y="232" width="128" height="18" rx="9" fill="url(#sliceGrad)" opacity="0.90"/>
    <rect x="216" y="209" width="80" height="18" rx="9" fill="url(#sliceGrad)" opacity="1.0"/>
    <rect x="234" y="190" width="44" height="14" rx="7" fill="url(#sliceGrad)" opacity="1.0"/>
  </g>
  <g filter="url(#softglow)">
    <polygon points="340,108 318,160 338,155 316,210 372,148 348,153" fill="url(#sparkGrad)" opacity="0.97"/>
  </g>
  <circle cx="145" cy="148" r="5" fill="#00e5b0" opacity="0.4"/>
  <circle cx="162" cy="165" r="3" fill="#00e5b0" opacity="0.3"/>
  <line x1="145" y1="148" x2="162" y2="165" stroke="#00e5b0" stroke-width="1.5" opacity="0.3"/>
  <circle cx="380" cy="370" r="5" fill="#00e5b0" opacity="0.35"/>
  <circle cx="362" cy="388" r="3" fill="#00e5b0" opacity="0.25"/>
  <line x1="380" y1="370" x2="362" y2="388" stroke="#00e5b0" stroke-width="1.5" opacity="0.25"/>
  <text x="256" y="468" font-family="'Helvetica Neue', sans-serif" font-size="38" font-weight="800" fill="white" text-anchor="middle" letter-spacing="6" opacity="0.85">SLICE<tspan fill="#f5c842">AI</tspan></text>
</svg>